<svg width="545" height="797" viewBox="0 0 545 797" fill="none" xmlns="http://www.w3.org/2000/svg">
<path d="M173.961 542.211C115.117 488.611 59.6887 564.545 39.3303 609.211L0 626.711V796.211L66.3698 657.711C90.8252 681.378 164.204 734.511 262.076 757.711C384.416 786.711 408.241 709.211 481.796 626.711C540.64 560.711 547.913 505.545 544.195 486.211V295.711C538.9 287.378 513.752 305.311 455.513 443.711C382.714 616.711 247.516 609.211 173.961 542.211Z" fill="#5129FF"/>
<path d="M173.961 248.211C115.117 194.611 59.6887 270.545 39.3303 315.211L0 332.711V502.211L66.3698 363.711C90.8252 387.378 164.204 440.511 262.076 463.711C384.416 492.711 408.241 415.211 481.796 332.711C540.64 266.711 547.913 211.545 544.195 192.211V1.71147C538.9 -6.62186 513.752 11.3115 455.513 149.711C382.714 322.711 247.516 315.211 173.961 248.211Z" fill="#200B50"/>
<path d="M173.961 376.5C115.117 322.9 59.6887 398.833 39.3303 443.5L0 461V630.5L66.3698 492C90.8252 515.667 164.204 568.8 262.076 592C384.416 621 408.241 543.5 481.796 461C540.64 395 547.913 339.833 544.195 320.5V130C538.9 121.667 513.752 139.6 455.513 278C382.714 451 247.516 443.5 173.961 376.5Z" fill="#21FFA2"/>
</svg>
