<svg width="25" height="24" viewBox="0 0 25 24" fill="none" xmlns="http://www.w3.org/2000/svg">
<path fill-rule="evenodd" clip-rule="evenodd" d="M17.6798 4.41C17.6798 3.08 18.7598 2 20.0898 2C21.4198 2 22.4998 3.08 22.4998 4.41C22.4998 5.74 21.4198 6.82 20.0898 6.82C18.7598 6.82 17.6798 5.74 17.6798 4.41ZM13.8297 14.7593L16.7197 11.0303L16.6797 11.0503C16.8397 10.8303 16.8697 10.5503 16.7597 10.3003C16.6507 10.0503 16.4097 9.8803 16.1507 9.8603C15.8797 9.8303 15.6107 9.9503 15.4497 10.1703L13.0307 13.3003L10.2597 11.1203C10.0897 10.9903 9.88969 10.9393 9.68969 10.9603C9.49069 10.9903 9.31069 11.0993 9.18969 11.2593L6.23069 15.1103L6.16969 15.2003C5.99969 15.5193 6.07969 15.9293 6.37969 16.1503C6.51969 16.2403 6.66969 16.3003 6.83969 16.3003C7.07069 16.3103 7.28969 16.1893 7.42969 16.0003L9.93969 12.7693L12.7897 14.9103L12.8797 14.9693C13.1997 15.1393 13.5997 15.0603 13.8297 14.7593ZM15.9497 3.7803C15.9097 4.0303 15.8897 4.2803 15.8897 4.5303C15.8897 6.7803 17.7097 8.5993 19.9497 8.5993C20.1997 8.5993 20.4397 8.5703 20.6897 8.5303V16.5993C20.6897 19.9903 18.6897 22.0003 15.2897 22.0003H7.90069C4.49969 22.0003 2.49969 19.9903 2.49969 16.5993V9.2003C2.49969 5.8003 4.49969 3.7803 7.90069 3.7803H15.9497Z" fill="#D1FC26"/>
</svg>
