<svg width="114" height="26" viewBox="0 0 114 26" fill="none" xmlns="http://www.w3.org/2000/svg">
<path d="M49.4593 18.2483C48.3925 18.2483 47.433 18.0858 46.5808 17.7609C45.7286 17.4359 44.999 16.973 44.392 16.3722C43.7912 15.7652 43.3313 15.0479 43.0125 14.2202C42.6937 13.3864 42.5343 12.4636 42.5343 11.452C42.5343 10.14 42.801 8.96894 43.3344 7.93892C43.8678 6.90277 44.6342 6.0904 45.6335 5.50182C46.6329 4.91323 47.8285 4.61894 49.2202 4.61894C49.6433 4.61894 50.0602 4.64653 50.471 4.70171C50.8879 4.75689 51.2864 4.83046 51.6665 4.92243C52.0466 5.0144 52.3992 5.12169 52.7241 5.24431C53.0552 5.3608 53.3495 5.48649 53.607 5.62137L53.3771 8.43553C52.8989 8.13511 52.439 7.896 51.9976 7.7182C51.5562 7.53427 51.13 7.40245 50.7193 7.32274C50.3146 7.23691 49.9284 7.19399 49.5605 7.19399C48.8125 7.19399 48.1473 7.35953 47.5648 7.69061C46.9824 8.01555 46.5225 8.49684 46.1853 9.13447C45.8543 9.76597 45.6887 10.5385 45.6887 11.452C45.6887 12.0345 45.7746 12.5863 45.9462 13.1074C46.1179 13.6224 46.3754 14.0792 46.7187 14.4777C47.0682 14.8762 47.5035 15.1889 48.0247 15.4158C48.5458 15.6426 49.1558 15.756 49.8548 15.756C50.1429 15.756 50.4311 15.7376 50.7193 15.7008C51.0136 15.6579 51.3078 15.5936 51.6021 15.5077C51.8964 15.4219 52.1907 15.3054 52.485 15.1582C52.7793 15.005 53.0736 14.821 53.3679 14.6065L53.5334 17.3838C53.2698 17.531 52.9786 17.6597 52.6597 17.7701C52.3409 17.8804 52.0037 17.9693 51.6481 18.0368C51.2987 18.1104 50.9369 18.1625 50.5629 18.1931C50.1951 18.2299 49.8272 18.2483 49.4593 18.2483ZM59.9544 18.2483C59.1206 18.2483 58.394 18.1165 57.7748 17.8529C57.1617 17.5892 56.6528 17.2306 56.2481 16.7769C55.8496 16.3232 55.5492 15.8051 55.3469 15.2226C55.1507 14.634 55.0526 14.0209 55.0526 13.3833C55.0526 12.4698 55.2365 11.6513 55.6044 10.9278C55.9784 10.1982 56.524 9.62496 57.2414 9.20805C57.9648 8.785 58.8508 8.57348 59.8992 8.57348C60.7085 8.57348 61.4166 8.6961 62.0236 8.94135C62.6367 9.18046 63.1456 9.52073 63.5503 9.96217C63.961 10.3975 64.2676 10.9094 64.4699 11.498C64.6722 12.0805 64.7734 12.7089 64.7734 13.3833C64.7734 14.3091 64.5864 15.1399 64.2124 15.8756C63.8384 16.6052 63.2927 17.1846 62.5754 17.6137C61.8581 18.0368 60.9844 18.2483 59.9544 18.2483ZM59.9452 16.0043C60.405 16.0043 60.7821 15.8817 61.0764 15.6365C61.3768 15.3851 61.6006 15.0602 61.7477 14.6616C61.901 14.2631 61.9776 13.837 61.9776 13.3833C61.9776 12.8438 61.8918 12.3839 61.7201 12.0038C61.5485 11.6176 61.3093 11.3233 61.0028 11.1209C60.6962 10.9186 60.3406 10.8175 59.936 10.8175C59.4823 10.8175 59.0991 10.9309 58.7864 11.1577C58.4799 11.3846 58.2469 11.6911 58.0875 12.0774C57.9342 12.4636 57.8576 12.899 57.8576 13.3833C57.8576 13.837 57.9342 14.2631 58.0875 14.6616C58.2469 15.0602 58.4799 15.3851 58.7864 15.6365C59.0991 15.8817 59.4854 16.0043 59.9452 16.0043ZM66.5972 18C66.5972 17.344 66.5972 16.7094 66.5972 16.0963C66.5972 15.4771 66.5972 14.7873 66.5972 14.0271V13.1074C66.5972 12.5004 66.5972 11.9578 66.5972 11.4796C66.5972 10.9953 66.5972 10.5416 66.5972 10.1185C66.5972 9.68934 66.5972 9.2571 66.5972 8.82179L69.347 8.73902C69.347 9.18046 69.347 9.61883 69.347 10.0541C69.347 10.4894 69.347 10.9523 69.347 11.4428C69.347 11.9333 69.347 12.4882 69.347 13.1074V14.0271C69.347 14.7873 69.347 15.4771 69.347 16.0963C69.347 16.7094 69.347 17.344 69.347 18H66.5972ZM67.9491 7.40551C67.4402 7.40551 67.0325 7.28596 66.726 7.04685C66.4255 6.8016 66.2753 6.40615 66.2753 5.86048C66.2753 5.37 66.4255 4.996 66.726 4.7385C67.0325 4.47486 67.4464 4.34304 67.9675 4.34304C68.4886 4.34304 68.8964 4.48099 69.1906 4.75689C69.4911 5.02666 69.6413 5.39452 69.6413 5.86048C69.6413 6.40615 69.4911 6.8016 69.1906 7.04685C68.8902 7.28596 68.4764 7.40551 67.9491 7.40551ZM71.6612 18C71.6612 17.344 71.6612 16.7094 71.6612 16.0963C71.6612 15.4771 71.6612 14.7873 71.6612 14.0271V13.1074C71.6612 12.4023 71.6612 11.6942 71.6612 10.983C71.6612 10.2718 71.6612 9.55139 71.6612 8.82179L73.9696 8.68384L74.0891 10.284H74.319C74.5275 9.98363 74.7789 9.70466 75.0732 9.44716C75.3675 9.18352 75.7047 8.972 76.0848 8.81259C76.471 8.65319 76.9094 8.57348 77.3999 8.57348C78.3196 8.57348 79.0154 8.84631 79.4875 9.39198C79.9596 9.93151 80.1957 10.7408 80.1957 11.8199C80.1957 12.2245 80.1957 12.6016 80.1957 12.9511C80.1957 13.2944 80.1957 13.6531 80.1957 14.0271C80.1957 14.7751 80.1957 15.4617 80.1957 16.0871C80.1957 16.7063 80.1957 17.344 80.1957 18H77.4551C77.4551 17.344 77.4551 16.7094 77.4551 16.0963C77.4551 15.4832 77.4551 14.8425 77.4551 14.1742V12.7028C77.4551 12.1632 77.3662 11.7586 77.1884 11.4888C77.0106 11.2129 76.6918 11.075 76.2319 11.075C75.9683 11.075 75.7261 11.1301 75.5054 11.2405C75.2847 11.3447 75.0824 11.4888 74.8984 11.6727C74.7145 11.8505 74.552 12.0498 74.411 12.2705V14.1742C74.411 14.8609 74.411 15.5077 74.411 16.1147C74.411 16.7155 74.411 17.344 74.411 18H71.6612ZM80.9981 21.6143C81.323 21.2219 81.5836 20.8019 81.7798 20.3543C81.9821 19.9129 82.1262 19.4377 82.212 18.9289C82.304 18.4261 82.35 17.8866 82.35 17.3103V14.0271V13.1074C82.35 12.5004 82.35 11.9578 82.35 11.4796C82.35 10.9953 82.35 10.5416 82.35 10.1185C82.35 9.68934 82.35 9.2571 82.35 8.82179L85.0998 8.73902C85.0998 9.18046 85.0998 9.61883 85.0998 10.0541C85.0998 10.4894 85.0998 10.9523 85.0998 11.4428C85.0998 11.9333 85.0998 12.4882 85.0998 13.1074C85.0998 13.7144 85.0998 14.2723 85.0998 14.7812C85.0998 15.2839 85.0998 15.7652 85.0998 16.2251C85.0998 16.6788 85.0998 17.1386 85.0998 17.6045C85.0998 18.0582 85.0691 18.4782 85.0078 18.8645C84.9465 19.2569 84.8545 19.6155 84.7319 19.9405C84.6154 20.2716 84.4652 20.5689 84.2813 20.8326C84.1035 21.0962 83.8981 21.3292 83.6651 21.5315L80.9981 21.6143ZM83.7295 7.40551C83.2206 7.40551 82.8129 7.28596 82.5063 7.04685C82.2059 6.8016 82.0557 6.40615 82.0557 5.86048C82.0557 5.37 82.2059 4.996 82.5063 4.7385C82.8129 4.47486 83.2267 4.34304 83.7479 4.34304C84.269 4.34304 84.6767 4.48099 84.971 4.75689C85.2714 5.02666 85.4216 5.39452 85.4216 5.86048C85.4216 6.40615 85.2714 6.8016 84.971 7.04685C84.6706 7.28596 84.2567 7.40551 83.7295 7.40551ZM91.8012 18.2483C90.9674 18.2483 90.2409 18.1165 89.6216 17.8529C89.0085 17.5892 88.4996 17.2306 88.095 16.7769C87.6965 16.3232 87.396 15.8051 87.1937 15.2226C86.9975 14.634 86.8994 14.0209 86.8994 13.3833C86.8994 12.4698 87.0834 11.6513 87.4512 10.9278C87.8252 10.1982 88.3709 9.62496 89.0882 9.20805C89.8117 8.785 90.6976 8.57348 91.746 8.57348C92.5553 8.57348 93.2635 8.6961 93.8704 8.94135C94.4836 9.18046 94.9924 9.52073 95.3971 9.96217C95.8079 10.3975 96.1144 10.9094 96.3167 11.498C96.5191 12.0805 96.6202 12.7089 96.6202 13.3833C96.6202 14.3091 96.4332 15.1399 96.0592 15.8756C95.6852 16.6052 95.1396 17.1846 94.4222 17.6137C93.7049 18.0368 92.8312 18.2483 91.8012 18.2483ZM91.792 16.0043C92.2518 16.0043 92.6289 15.8817 92.9232 15.6365C93.2236 15.3851 93.4474 15.0602 93.5945 14.6616C93.7478 14.2631 93.8245 13.837 93.8245 13.3833C93.8245 12.8438 93.7386 12.3839 93.567 12.0038C93.3953 11.6176 93.1562 11.3233 92.8496 11.1209C92.5431 10.9186 92.1875 10.8175 91.7828 10.8175C91.3291 10.8175 90.9459 10.9309 90.6332 11.1577C90.3267 11.3846 90.0937 11.6911 89.9343 12.0774C89.781 12.4636 89.7044 12.899 89.7044 13.3833C89.7044 13.837 89.781 14.2631 89.9343 14.6616C90.0937 15.0602 90.3267 15.3851 90.6332 15.6365C90.9459 15.8817 91.3322 16.0043 91.792 16.0043ZM97.0921 21.6143C97.4171 21.2219 97.6776 20.8019 97.8738 20.3543C98.0762 19.9129 98.2202 19.4377 98.3061 18.9289C98.398 18.4261 98.444 17.8866 98.444 17.3103V14.0271V13.1074C98.444 12.5004 98.444 11.9578 98.444 11.4796C98.444 10.9953 98.444 10.5416 98.444 10.1185C98.444 9.68934 98.444 9.2571 98.444 8.82179L101.194 8.73902C101.194 9.18046 101.194 9.61883 101.194 10.0541C101.194 10.4894 101.194 10.9523 101.194 11.4428C101.194 11.9333 101.194 12.4882 101.194 13.1074C101.194 13.7144 101.194 14.2723 101.194 14.7812C101.194 15.2839 101.194 15.7652 101.194 16.2251C101.194 16.6788 101.194 17.1386 101.194 17.6045C101.194 18.0582 101.163 18.4782 101.102 18.8645C101.041 19.2569 100.949 19.6155 100.826 19.9405C100.709 20.2716 100.559 20.5689 100.375 20.8326C100.198 21.0962 99.9921 21.3292 99.7591 21.5315L97.0921 21.6143ZM99.8235 7.40551C99.3146 7.40551 98.9069 7.28596 98.6004 7.04685C98.2999 6.8016 98.1497 6.40615 98.1497 5.86048C98.1497 5.37 98.2999 4.996 98.6004 4.7385C98.9069 4.47486 99.3208 4.34304 99.8419 4.34304C100.363 4.34304 100.771 4.48099 101.065 4.75689C101.365 5.02666 101.516 5.39452 101.516 5.86048C101.516 6.40615 101.365 6.8016 101.065 7.04685C100.765 7.28596 100.351 7.40551 99.8235 7.40551ZM107.895 18.2483C107.061 18.2483 106.335 18.1165 105.716 17.8529C105.103 17.5892 104.594 17.2306 104.189 16.7769C103.791 16.3232 103.49 15.8051 103.288 15.2226C103.092 14.634 102.993 14.0209 102.993 13.3833C102.993 12.4698 103.177 11.6513 103.545 10.9278C103.919 10.1982 104.465 9.62496 105.182 9.20805C105.906 8.785 106.792 8.57348 107.84 8.57348C108.649 8.57348 109.358 8.6961 109.965 8.94135C110.578 9.18046 111.086 9.52073 111.491 9.96217C111.902 10.3975 112.208 10.9094 112.411 11.498C112.613 12.0805 112.714 12.7089 112.714 13.3833C112.714 14.3091 112.527 15.1399 112.153 15.8756C111.779 16.6052 111.234 17.1846 110.516 17.6137C109.799 18.0368 108.925 18.2483 107.895 18.2483ZM107.886 16.0043C108.346 16.0043 108.723 15.8817 109.017 15.6365C109.318 15.3851 109.541 15.0602 109.689 14.6616C109.842 14.2631 109.919 13.837 109.919 13.3833C109.919 12.8438 109.833 12.3839 109.661 12.0038C109.489 11.6176 109.25 11.3233 108.944 11.1209C108.637 10.9186 108.282 10.8175 107.877 10.8175C107.423 10.8175 107.04 10.9309 106.727 11.1577C106.421 11.3846 106.188 11.6911 106.028 12.0774C105.875 12.4636 105.798 12.899 105.798 13.3833C105.798 13.837 105.875 14.2631 106.028 14.6616C106.188 15.0602 106.421 15.3851 106.727 15.6365C107.04 15.8817 107.426 16.0043 107.886 16.0043Z" fill="white"/>
<g clip-path="url(#clip0_6_1278)">
<path fill-rule="evenodd" clip-rule="evenodd" d="M2.95247 12.6453C2.95247 15.289 4.00977 17.6845 5.72379 19.432C7.44261 21.1843 9.82054 22.2879 12.4554 22.3382L12.6461 22.3398V22.3382C13.227 22.3382 13.796 22.2871 14.3466 22.1898C14.9115 22.09 15.4597 21.9408 15.9864 21.7477C16.8578 21.4277 17.6685 20.9888 18.397 20.451C19.1352 19.9068 19.7943 19.2573 20.3537 18.5247C20.6114 18.1872 20.846 17.8353 21.0551 17.473C21.2633 17.1115 21.4493 16.7333 21.6112 16.3407L21.6998 16.1268H21.9296H24.3403H25.2579H28.8472H31.2578H31.7326L31.585 16.5785C31.4541 16.9775 31.3017 17.3741 31.1278 17.7667L31.1294 17.7675C30.9578 18.1545 30.7655 18.5343 30.554 18.9046C29.4464 20.8452 27.8393 22.4643 25.9083 23.5862C24.0426 24.6698 21.8754 25.2907 19.5653 25.2907C19.2477 25.2907 18.9293 25.2787 18.6101 25.2547C18.2893 25.2308 17.9741 25.1949 17.6645 25.1486L17.4642 25.1183C19.104 24.4799 20.5883 23.4585 21.9153 22.0533C22.8832 21.8123 23.7937 21.4253 24.6236 20.917C25.4431 20.4151 26.182 19.7943 26.8172 19.0793H24.3323H23.5359C23.3181 19.4464 23.0819 19.8023 22.8297 20.1454C22.5768 20.4877 22.3071 20.8181 22.0214 21.1333C21.403 21.8163 20.7119 22.43 19.9619 22.963C19.3929 23.3668 18.7888 23.7251 18.1569 24.0315C17.5345 24.3331 16.8817 24.5861 16.2034 24.7839C15.6321 24.9507 15.0456 25.0792 14.4487 25.1638C13.8582 25.2476 13.2574 25.2915 12.6493 25.2915C11.6511 25.2915 10.6799 25.1757 9.74792 24.9571C7.42106 24.4105 5.34157 23.2223 3.70734 21.5881C1.41559 19.2987 0 16.1372 0 12.6453C0 9.15344 1.41559 5.99191 3.70415 3.70415C5.99191 1.41559 9.15344 0 12.6453 0C13.2526 0 13.8526 0.043888 14.4423 0.127674H14.4447C15.0416 0.213056 15.6281 0.34073 16.1995 0.507505C16.8777 0.7054 17.5305 0.958354 18.1529 1.25998C18.7857 1.5664 19.3889 1.92469 19.9579 2.32846C20.708 2.8607 21.399 3.47513 22.0174 4.15819C22.2057 4.36566 22.3861 4.57951 22.56 4.79815C22.9151 5.24581 23.2399 5.71821 23.5319 6.21135H24.3283H26.8132C26.178 5.49557 25.4391 4.87556 24.6196 4.37364C23.8352 3.89247 22.9774 3.52062 22.0677 3.27803C20.7814 1.87841 19.2573 0.841851 17.4961 0.167572L17.6605 0.142835C17.9701 0.0957556 18.2861 0.0606452 18.6061 0.0367063C18.9253 0.0127674 19.2437 0.000797963 19.5613 0.000797963C21.8722 0.000797963 24.0394 0.621614 25.9043 1.70525C27.8354 2.82718 29.4425 4.44625 30.55 6.3869C30.7615 6.75715 30.9538 7.13699 31.1254 7.524L31.1238 7.5248C31.2977 7.9166 31.4509 8.31318 31.581 8.71296L31.7286 9.16461H31.2538H28.8432H25.254H24.3363H21.9256H21.6958L21.6073 8.95076C21.4453 8.55816 21.2593 8.17992 21.0511 7.81845C20.842 7.45537 20.6074 7.10427 20.3497 6.76673C19.7903 6.0342 19.1304 5.38466 18.3931 4.84045C17.6637 4.30262 16.853 3.86294 15.9824 3.54376C15.4566 3.35065 14.9084 3.20143 14.3426 3.10168C13.7912 3.00433 13.2231 2.95326 12.6421 2.95326V2.95167L12.4546 2.95247C9.81974 3.00274 7.44181 4.10552 5.72299 5.85865C4.00897 7.60619 2.95167 10.0017 2.95247 12.6453Z" fill="#1E74FE"/>
<path fill-rule="evenodd" clip-rule="evenodd" d="M16.5556 11.1429L7.91086 18.9011L4.07683 15.1735L2.65213 16.2124L1.02661 13.9831L4.33158 11.5732L7.98621 15.1263L14.7129 9.08957L16.5556 11.1429Z" fill="#1E74FE"/>
<path fill-rule="evenodd" clip-rule="evenodd" d="M9.65649 8.73676H17.0138V16.094H14.2548V11.4957H9.65649V8.73676Z" fill="#1E74FE"/>
</g>
<defs>
<clipPath id="clip0_6_1278">
<rect width="31.731" height="25.2907" fill="white"/>
</clipPath>
</defs>
</svg>
