<svg viewBox="0 0 24 24"  xmlns="http://www.w3.org/2000/svg" style="display:none">

	<symbol viewBox="0 0 10 14" id="arrow-to-up">
		<path fill-rule="evenodd" clip-rule="evenodd" d="M4.29289 0.95955C4.68342 0.569025 5.31658 0.569025 5.70711 0.95955L9.70711 4.95955C10.0976 5.35007 10.0976 5.98324 9.70711 6.37376C9.31658 6.76429 8.68342 6.76429 8.29289 6.37376L6 4.08087V12.3333C6 12.8856 5.55228 13.3333 5 13.3333C4.44772 13.3333 4 12.8856 4 12.3333V4.08087L1.70711 6.37376C1.31658 6.76429 0.683417 6.76429 0.292893 6.37376C-0.0976311 5.98324 -0.0976311 5.35007 0.292893 4.95955L4.29289 0.95955Z"/>
	</symbol>

	<symbol viewBox="0 0 20 20" id="filter">
		<path fill-rule="evenodd" clip-rule="evenodd" d="M3.90853 2C3.92285 2 3.93722 2 3.95163 2L16.3638 2C16.7994 1.99997 17.192 1.99994 17.5026 2.02786C17.7983 2.05445 18.2416 2.11852 18.6063 2.41963C19.0478 2.78416 19.2936 3.334 19.2709 3.90608C19.2522 4.37863 19.0043 4.75177 18.8269 4.98987C18.6406 5.23991 18.3788 5.53253 18.0884 5.8571L13.3044 11.2038C13.2722 11.2398 13.2478 11.2671 13.2269 11.2909C13.2245 11.2937 13.2221 11.2963 13.2199 11.2989C13.2199 11.3023 13.2198 11.3058 13.2198 11.3095C13.2195 11.3411 13.2195 11.3778 13.2195 11.4261V15.882C13.2195 15.8897 13.2196 15.8993 13.2198 15.9106C13.2213 16.0208 13.225 16.2922 13.1302 16.5464C13.0512 16.7581 12.9228 16.9478 12.7556 17.0997C12.5547 17.2822 12.3014 17.3796 12.1985 17.4191C12.1879 17.4231 12.179 17.4266 12.1718 17.4294L9.3385 18.5628C9.33018 18.5661 9.32176 18.5695 9.31323 18.5729C9.18301 18.625 9.02985 18.6864 8.89312 18.7272C8.74483 18.7714 8.48481 18.8347 8.18129 18.7716C7.81577 18.6957 7.495 18.4785 7.28873 18.1673C7.11744 17.9089 7.0796 17.644 7.06561 17.4899C7.05272 17.3478 7.05278 17.1828 7.05284 17.0425C7.05285 17.0334 7.05285 17.0243 7.05285 17.0153V11.4261C7.05285 11.3778 7.05284 11.3411 7.05257 11.3095C7.05254 11.3058 7.05251 11.3023 7.05247 11.2989C7.05024 11.2963 7.04791 11.2937 7.04546 11.2909C7.02457 11.2671 7.00015 11.2398 6.96793 11.2038L2.21273 5.88919C2.20312 5.87845 2.19354 5.86774 2.18399 5.85707C1.89356 5.53251 1.63171 5.2399 1.44546 4.98987C1.2681 4.75177 1.02021 4.37863 1.00145 3.90608C0.978729 3.33401 1.22457 2.78416 1.66606 2.41963C2.03073 2.11852 2.4741 2.05445 2.76981 2.02786C3.08033 1.99994 3.473 1.99997 3.90853 2ZM3.21849 4.00555C3.33735 4.1461 3.49421 4.32201 3.70321 4.5556L8.45841 9.87024C8.46689 9.87971 8.4758 9.8896 8.48508 9.89991C8.58141 10.0069 8.71746 10.158 8.81871 10.3386C8.90612 10.4945 8.97025 10.6623 9.00907 10.8368C9.05405 11.0389 9.0534 11.2422 9.05294 11.3862C9.05289 11.4001 9.05285 11.4134 9.05285 11.4261V16.523L11.2195 15.6563V11.4261C11.2195 11.4134 11.2195 11.4001 11.2194 11.3862C11.219 11.2422 11.2183 11.0389 11.2633 10.8368C11.3021 10.6623 11.3662 10.4945 11.4537 10.3386C11.5549 10.158 11.691 10.0069 11.7873 9.8999C11.7966 9.8896 11.8055 9.87971 11.814 9.87024L16.5692 4.5556C16.7782 4.32201 16.935 4.1461 17.0539 4.00555C16.8699 4.0004 16.6342 4 16.3207 4H3.95163C3.63819 4 3.40249 4.0004 3.21849 4.00555Z"/>
	</symbol>

	<symbol viewBox="0 0 16 16" id="search">
		<path fill-rule="evenodd" clip-rule="evenodd" d="M7.66671 2.66666C4.90528 2.66666 2.66671 4.90524 2.66671 7.66666C2.66671 10.4281 4.90528 12.6667 7.66671 12.6667C9.00877 12.6667 10.2273 12.1379 11.1255 11.2774C11.1462 11.2486 11.1695 11.2211 11.1954 11.1953C11.2212 11.1694 11.2487 11.1461 11.2775 11.1254C12.138 10.2272 12.6667 9.0087 12.6667 7.66666C12.6667 4.90524 10.4281 2.66666 7.66671 2.66666ZM12.5917 11.6488C13.4725 10.5609 14 9.17541 14 7.66666C14 4.16886 11.1645 1.33333 7.66671 1.33333C4.1689 1.33333 1.33337 4.16886 1.33337 7.66666C1.33337 11.1645 4.1689 14 7.66671 14C9.17549 14 10.561 13.4724 11.6489 12.5917L13.5286 14.4714C13.789 14.7317 14.2111 14.7318 14.4714 14.4714C14.7318 14.2111 14.7318 13.789 14.4715 13.5286L12.5917 11.6488Z"/>
	</symbol>

	<symbol viewBox="0 0 16 16" id="plus">
		<path fill-rule="evenodd" clip-rule="evenodd" d="M7.99996 2.66667C8.36815 2.66667 8.66663 2.96515 8.66663 3.33334V7.33334H12.6666C13.0348 7.33334 13.3333 7.63182 13.3333 8.00001C13.3333 8.3682 13.0348 8.66667 12.6666 8.66667H8.66663V12.6667C8.66663 13.0349 8.36815 13.3333 7.99996 13.3333C7.63177 13.3333 7.33329 13.0349 7.33329 12.6667V8.66667H3.33329C2.9651 8.66667 2.66663 8.3682 2.66663 8.00001C2.66663 7.63182 2.9651 7.33334 3.33329 7.33334H7.33329V3.33334C7.33329 2.96515 7.63177 2.66667 7.99996 2.66667Z"/>
	</symbol>

	<symbol viewBox="0 0 24 24" id="arrow-link">
		<path fill-rule="evenodd" clip-rule="evenodd" d="M9 6C9 5.44772 9.44772 5 10 5H18C18.5523 5 19 5.44772 19 6V14C19 14.5523 18.5523 15 18 15C17.4477 15 17 14.5523 17 14V8.41421L6.70711 18.7071C6.31658 19.0976 5.68342 19.0976 5.29289 18.7071C4.90237 18.3166 4.90237 17.6834 5.29289 17.2929L15.5858 7H10C9.44772 7 9 6.55228 9 6Z"/>
	</symbol>

	<symbol viewBox="0 0 16 16" id="instagram">
		<path d="M8.00004 1.33325C9.81137 1.33325 10.0374 1.33992 10.748 1.37325C11.458 1.40659 11.9414 1.51792 12.3667 1.68325C12.8067 1.85259 13.1774 2.08192 13.548 2.45192C13.887 2.78518 14.1493 3.18831 14.3167 3.63325C14.4814 4.05792 14.5934 4.54192 14.6267 5.25192C14.658 5.96259 14.6667 6.18859 14.6667 7.99992C14.6667 9.81125 14.66 10.0373 14.6267 10.7479C14.5934 11.4579 14.4814 11.9413 14.3167 12.3666C14.1498 12.8118 13.8875 13.215 13.548 13.5479C13.2147 13.8868 12.8116 14.1491 12.3667 14.3166C11.942 14.4813 11.458 14.5933 10.748 14.6266C10.0374 14.6579 9.81137 14.6666 8.00004 14.6666C6.18871 14.6666 5.96271 14.6599 5.25204 14.6266C4.54204 14.5933 4.05871 14.4813 3.63337 14.3166C3.18826 14.1496 2.78506 13.8872 2.45204 13.5479C2.11298 13.2147 1.85066 12.8116 1.68337 12.3666C1.51804 11.9419 1.40671 11.4579 1.37337 10.7479C1.34204 10.0373 1.33337 9.81125 1.33337 7.99992C1.33337 6.18859 1.34004 5.96259 1.37337 5.25192C1.40671 4.54125 1.51804 4.05859 1.68337 3.63325C1.8502 3.18804 2.11258 2.7848 2.45204 2.45192C2.78515 2.11274 3.18833 1.8504 3.63337 1.68325C4.05871 1.51792 4.54137 1.40659 5.25204 1.37325C5.96271 1.34192 6.18871 1.33325 8.00004 1.33325ZM8.00004 4.66659C7.11599 4.66659 6.26814 5.01777 5.64302 5.6429C5.0179 6.26802 4.66671 7.11586 4.66671 7.99992C4.66671 8.88397 5.0179 9.73182 5.64302 10.3569C6.26814 10.9821 7.11599 11.3333 8.00004 11.3333C8.8841 11.3333 9.73194 10.9821 10.3571 10.3569C10.9822 9.73182 11.3334 8.88397 11.3334 7.99992C11.3334 7.11586 10.9822 6.26802 10.3571 5.6429C9.73194 5.01777 8.8841 4.66659 8.00004 4.66659V4.66659ZM12.3334 4.49992C12.3334 4.2789 12.2456 4.06694 12.0893 3.91066C11.933 3.75438 11.7211 3.66659 11.5 3.66659C11.279 3.66659 11.0671 3.75438 10.9108 3.91066C10.7545 4.06694 10.6667 4.2789 10.6667 4.49992C10.6667 4.72093 10.7545 4.93289 10.9108 5.08917C11.0671 5.24545 11.279 5.33325 11.5 5.33325C11.7211 5.33325 11.933 5.24545 12.0893 5.08917C12.2456 4.93289 12.3334 4.72093 12.3334 4.49992ZM8.00004 5.99992C8.53047 5.99992 9.03918 6.21063 9.41425 6.5857C9.78933 6.96078 10 7.46949 10 7.99992C10 8.53035 9.78933 9.03906 9.41425 9.41413C9.03918 9.78921 8.53047 9.99992 8.00004 9.99992C7.46961 9.99992 6.9609 9.78921 6.58583 9.41413C6.21075 9.03906 6.00004 8.53035 6.00004 7.99992C6.00004 7.46949 6.21075 6.96078 6.58583 6.5857C6.9609 6.21063 7.46961 5.99992 8.00004 5.99992V5.99992Z"/>
	</symbol>

	<symbol viewBox="0 0 16 16" id="twitter">
		<path d="M15 3.99999L13.5 4.24999L14.5 2.99999L12.75 3.49999C10.5 0.999993 7 3.74999 8 5.99999C4 5.99999 2 2.99999 2 2.99999C2 2.99999 0.5 5.24999 3 6.99999L1.5 6.49999C1.5 7.99999 2.5 8.99999 4.25 9.49999H2.5C3.5 11.5 5.25 11.5 5.25 11.5C5.25 11.5 3.75 12.75 1 12.75C9.25 16.75 14.25 9.24999 13.5 5.24999L15 3.99999Z"/>
	</symbol>

	<symbol viewBox="0 0 16 16" id="youtube">
		<path d="M15.664 4.13539C15.5711 3.80326 15.394 3.50074 15.1498 3.25714C14.9057 3.01353 14.6028 2.83709 14.2705 2.74489C13.023 2.41139 8.00797 2.41139 8.00797 2.41139C8.00797 2.41139 3.00247 2.40339 1.74197 2.74489C1.41017 2.83749 1.10786 3.01412 0.864279 3.25771C0.620695 3.50129 0.444066 3.80359 0.351466 4.13539C0.114566 5.4125 -0.00211057 6.70901 0.00296641 8.00789C0.000654862 9.30053 0.117314 10.5906 0.351466 11.8619C0.444366 12.1939 0.621047 12.4964 0.864546 12.7404C1.10805 12.9844 1.41019 13.1618 1.74197 13.2554C2.98947 13.5889 8.00797 13.5889 8.00797 13.5889C8.00797 13.5889 13.0105 13.5889 14.2705 13.2554C14.6028 13.1622 14.9055 12.985 15.1496 12.741C15.3936 12.4969 15.5708 12.1942 15.664 11.8619C15.8935 10.5914 16.0055 9.29939 15.9975 8.00789C16.0055 6.70789 15.896 5.41389 15.664 4.13539ZM6.40597 10.4014V5.60389L10.5805 8.00789L6.40597 10.4014Z"/>
	</symbol>

	<symbol viewBox="0 0 16 16" id="telegram">
		<path d="M13.7767 2.47812L1.95669 7.03612C1.15002 7.36012 1.15469 7.81012 1.80869 8.01079L4.84336 8.95746L11.8647 4.52746C12.1967 4.32546 12.5 4.43412 12.2507 4.65546L6.56202 9.78946H6.56069L6.56202 9.79012L6.35269 12.9181C6.65936 12.9181 6.79469 12.7775 6.96669 12.6115L8.44069 11.1781L11.5067 13.4428C12.072 13.7541 12.478 13.5941 12.6187 12.9195L14.6314 3.43412C14.8374 2.60812 14.316 2.23412 13.7767 2.47812Z"/>
	</symbol>

	<symbol viewBox="0 0 16 16" id="facebook">
		<path d="M14.6667 7.99992C14.6667 4.31992 11.68 1.33325 8.00004 1.33325C4.32004 1.33325 1.33337 4.31992 1.33337 7.99992C1.33337 11.2266 3.62671 13.9133 6.66671 14.5333V9.99992H5.33337V7.99992H6.66671V6.33325C6.66671 5.04659 7.71337 3.99992 9.00004 3.99992H10.6667V5.99992H9.33337C8.96671 5.99992 8.66671 6.29992 8.66671 6.66659V7.99992H10.6667V9.99992H8.66671V14.6333C12.0334 14.2999 14.6667 11.4599 14.6667 7.99992Z"/>
	</symbol>

	<symbol viewBox="0 0 8 8" id="close">
		<path fill-rule="evenodd" clip-rule="evenodd" d="M0.46967 0.46967C0.762563 0.176777 1.23744 0.176777 1.53033 0.46967L4 2.93934L6.46967 0.46967C6.76256 0.176777 7.23744 0.176777 7.53033 0.46967C7.82322 0.762563 7.82322 1.23744 7.53033 1.53033L5.06066 4L7.53033 6.46967C7.82322 6.76256 7.82322 7.23744 7.53033 7.53033C7.23744 7.82322 6.76256 7.82322 6.46967 7.53033L4 5.06066L1.53033 7.53033C1.23744 7.82322 0.762563 7.82322 0.46967 7.53033C0.176777 7.23744 0.176777 6.76256 0.46967 6.46967L2.93934 4L0.46967 1.53033C0.176777 1.23744 0.176777 0.762563 0.46967 0.46967Z"/>
	</symbol>

	<symbol viewBox="0 0 24 24" id="close-2">
		<path fill-rule="evenodd" clip-rule="evenodd" d="M5.29289 5.29289C5.68342 4.90237 6.31658 4.90237 6.70711 5.29289L12 10.5858L17.2929 5.29289C17.6834 4.90237 18.3166 4.90237 18.7071 5.29289C19.0976 5.68342 19.0976 6.31658 18.7071 6.70711L13.4142 12L18.7071 17.2929C19.0976 17.6834 19.0976 18.3166 18.7071 18.7071C18.3166 19.0976 17.6834 19.0976 17.2929 18.7071L12 13.4142L6.70711 18.7071C6.31658 19.0976 5.68342 19.0976 5.29289 18.7071C4.90237 18.3166 4.90237 17.6834 5.29289 17.2929L10.5858 12L5.29289 6.70711C4.90237 6.31658 4.90237 5.68342 5.29289 5.29289Z"/>
	</symbol>

	<symbol viewBox="0 0 16 16" id="select-arrow">
		<path fill-rule="evenodd" clip-rule="evenodd" d="M3.37168 5.37143C3.71881 5.0243 4.28162 5.0243 4.62876 5.37143L8.00022 8.74289L11.3717 5.37143C11.7188 5.0243 12.2816 5.0243 12.6288 5.37143C12.9759 5.71857 12.9759 6.28138 12.6288 6.62851L8.62876 10.6285C8.28162 10.9756 7.71881 10.9756 7.37168 10.6285L3.37168 6.62851C3.02454 6.28138 3.02454 5.71857 3.37168 5.37143Z"/>
	</symbol>

	<symbol viewBox="0 0 24 24" id="danger">
		<path fill-rule="evenodd" clip-rule="evenodd" d="M5.31171 10.7615C8.23007 5.58716 9.68925 3 12 3C14.3107 3 15.7699 5.58716 18.6883 10.7615L19.0519 11.4063C21.4771 15.7061 22.6897 17.856 21.5937 19.428C20.4978 21 17.7864 21 12.3637 21H11.6363C6.21356 21 3.50217 21 2.40626 19.428C1.31034 17.856 2.52291 15.7061 4.94805 11.4063L5.31171 10.7615ZM12 7.25C12.4142 7.25 12.75 7.58579 12.75 8V13C12.75 13.4142 12.4142 13.75 12 13.75C11.5858 13.75 11.25 13.4142 11.25 13V8C11.25 7.58579 11.5858 7.25 12 7.25ZM12 17C12.5523 17 13 16.5523 13 16C13 15.4477 12.5523 15 12 15C11.4477 15 11 15.4477 11 16C11 16.5523 11.4477 17 12 17Z"/>
	</symbol>

	<symbol viewBox="0 0 16 16" id="arrow-up">
		<path fill-rule="evenodd" clip-rule="evenodd" d="M5.66667 4C5.66667 3.44772 6.11438 3 6.66667 3H12C12.5523 3 13 3.44772 13 4V9.33333C13 9.88562 12.5523 10.3333 12 10.3333C11.4477 10.3333 11 9.88562 11 9.33333V6.41421L4.70711 12.7071C4.31658 13.0976 3.68342 13.0976 3.29289 12.7071C2.90237 12.3166 2.90237 11.6834 3.29289 11.2929L9.58579 5H6.66667C6.11438 5 5.66667 4.55228 5.66667 4Z"/>
	</symbol>

	<symbol viewBox="0 0 17 16" id="arrow-down">
		<path fill-rule="evenodd" clip-rule="evenodd" d="M12.5 5.66667C13.0523 5.66667 13.5 6.11438 13.5 6.66667L13.5 12C13.5 12.5523 13.0523 13 12.5 13L7.16667 13C6.61438 13 6.16667 12.5523 6.16667 12C6.16667 11.4477 6.61438 11 7.16667 11L10.0858 11L3.79289 4.70711C3.40237 4.31658 3.40237 3.68342 3.79289 3.29289C4.18342 2.90237 4.81658 2.90237 5.20711 3.29289L11.5 9.58579L11.5 6.66667C11.5 6.11438 11.9477 5.66667 12.5 5.66667Z"/>
	</symbol>

	<symbol viewBox="0 0 16 16" id="arrow-prev">
		<path fill-rule="evenodd" clip-rule="evenodd" d="M10.5175 3.26035C10.8646 3.60748 10.8646 4.1703 10.5175 4.51743L7.14602 7.88889L10.5175 11.2604C10.8646 11.6075 10.8646 12.1703 10.5175 12.5174C10.1703 12.8646 9.60754 12.8646 9.2604 12.5174L5.2604 8.51743C4.91327 8.1703 4.91327 7.60748 5.2604 7.26035L9.2604 3.26035C9.60754 2.91322 10.1703 2.91322 10.5175 3.26035Z"/>
	</symbol>

	<symbol viewBox="0 0 16 16" id="arrow-next">
		<path fill-rule="evenodd" clip-rule="evenodd" d="M5.48252 12.7397C5.13538 12.3925 5.13538 11.8297 5.48252 11.4826L8.85398 8.11111L5.48252 4.73965C5.13539 4.39252 5.13539 3.8297 5.48252 3.48257C5.82965 3.13544 6.39246 3.13544 6.7396 3.48257L10.7396 7.48257C11.0867 7.82971 11.0867 8.39252 10.7396 8.73965L6.7396 12.7397C6.39246 13.0868 5.82965 13.0868 5.48252 12.7397Z"/>
	</symbol>

	<symbol viewBox="0 0 20 20" id="star">
		<path d="M7.62772 4.50694C8.68326 2.6134 9.21103 1.66663 10.0001 1.66663C10.7891 1.66663 11.3169 2.6134 12.3724 4.50694L12.6455 4.99682C12.9455 5.53491 13.0955 5.80395 13.3293 5.98147C13.5631 6.15898 13.8544 6.22488 14.4368 6.35667L14.9671 6.47665C17.0169 6.94042 18.0417 7.17231 18.2856 7.9564C18.5294 8.7405 17.8307 9.55752 16.4333 11.1916L16.0718 11.6143C15.6747 12.0787 15.4762 12.3108 15.3869 12.5981C15.2975 12.8853 15.3276 13.1951 15.3876 13.8146L15.4423 14.3786C15.6535 16.5588 15.7591 17.6489 15.1208 18.1335C14.4824 18.6181 13.5229 18.1762 11.6037 17.2926L11.1072 17.064C10.5618 16.8129 10.2891 16.6873 10.0001 16.6873C9.71104 16.6873 9.43835 16.8129 8.89299 17.064L8.39648 17.2926C6.47731 18.1762 5.51773 18.6181 4.87937 18.1335C4.24102 17.6489 4.34665 16.5588 4.55791 14.3786L4.61257 13.8146C4.6726 13.1951 4.70262 12.8853 4.6133 12.5981C4.52398 12.3108 4.32544 12.0787 3.92835 11.6143L3.56683 11.1916C2.16946 9.55752 1.47077 8.7405 1.7146 7.9564C1.95843 7.17231 2.9833 6.94042 5.03303 6.47665L5.56332 6.35667C6.14579 6.22488 6.43703 6.15898 6.67087 5.98147C6.90471 5.80395 7.05469 5.53491 7.35464 4.99682L7.62772 4.50694Z" stroke-width="1.5"/>
	</symbol>

	<symbol viewBox="0 0 16 16" id="copy">
		<path d="M10.16 1.33331H7.56389C6.38773 1.3333 5.45612 1.3333 4.72703 1.43171C3.97668 1.533 3.36935 1.74641 2.8904 2.22729C2.41144 2.70816 2.19889 3.31793 2.09801 4.07129C1.99998 4.80331 1.99999 5.73866 2 6.91954V10.8112C2 11.8166 2.6133 12.6782 3.48478 13.0395C3.43992 12.4332 3.43996 11.5824 3.44 10.8747L3.44 7.59837L3.44 7.53492C3.43995 6.68048 3.43991 5.94427 3.51886 5.35472C3.60346 4.7229 3.79426 4.11726 4.28353 3.62602C4.77281 3.13478 5.37603 2.94321 6.00532 2.85827C6.59251 2.77901 7.32578 2.77905 8.1768 2.77909L8.24 2.7791H10.16L10.2232 2.77909C11.0742 2.77905 11.8059 2.77901 12.3931 2.85827C12.0418 1.96517 11.1744 1.33331 10.16 1.33331Z"/>
		<path d="M4.3999 7.59828C4.3999 5.78082 4.3999 4.87209 4.96226 4.30747C5.52461 3.74286 6.42971 3.74286 8.2399 3.74286H10.1599C11.9701 3.74286 12.8752 3.74286 13.4375 4.30747C13.9999 4.87209 13.9999 5.78082 13.9999 7.59828V10.8111C13.9999 12.6286 13.9999 13.5373 13.4375 14.1019C12.8752 14.6666 11.9701 14.6666 10.1599 14.6666H8.2399C6.42971 14.6666 5.52461 14.6666 4.96226 14.1019C4.3999 13.5373 4.3999 12.6286 4.3999 10.8111V7.59828Z"/>
	</symbol>

	<symbol viewBox="0 0 10 14" id="arrows-up-down">
		<path d="M5 0L9.33013 5.25H0.669873L5 0Z"/>
		<path d="M5 14L0.669873 8.75L9.33013 8.75L5 14Z"/>
	</symbol>

	<symbol viewBox="0 0 10 14" id="arrow-up-active">
		<path d="M5 0L9.33013 5.25H0.669873L5 0Z"/>
	</symbol>

	<symbol viewBox="0 0 10 14" id="arrow-down-active">
		<path d="M5 14L0.669873 8.75L9.33013 8.75L5 14Z"/>
	</symbol>

	<symbol viewBox="0 0 16 17" id="link">
		<path fill-rule="evenodd" clip-rule="evenodd" d="M2.30981 14.1903C3.28612 15.1666 4.85747 15.1666 8.00016 15.1666C11.1429 15.1666 12.7142 15.1666 13.6905 14.1903C14.6668 13.214 14.6668 11.6427 14.6668 8.49998C14.6668 5.35728 14.6668 3.78593 13.6905 2.80962C12.7142 1.83331 11.1429 1.83331 8.00016 1.83331C4.85747 1.83331 3.28612 1.83331 2.30981 2.80962C1.3335 3.78593 1.3335 5.35728 1.3335 8.49998C1.3335 11.6427 1.3335 13.214 2.30981 14.1903ZM6.3335 6.33331C5.13688 6.33331 4.16683 7.30336 4.16683 8.49998C4.16683 9.6966 5.13688 10.6666 6.3335 10.6666C7.53011 10.6666 8.50016 9.6966 8.50016 8.49998C8.50016 8.22384 8.72402 7.99998 9.00016 7.99998C9.2763 7.99998 9.50016 8.22384 9.50016 8.49998C9.50016 10.2489 8.0824 11.6666 6.3335 11.6666C4.58459 11.6666 3.16683 10.2489 3.16683 8.49998C3.16683 6.75108 4.58459 5.33331 6.3335 5.33331C6.60964 5.33331 6.8335 5.55717 6.8335 5.83331C6.8335 6.10946 6.60964 6.33331 6.3335 6.33331ZM11.8335 8.49998C11.8335 9.6966 10.8634 10.6666 9.66683 10.6666C9.39069 10.6666 9.16683 10.8905 9.16683 11.1666C9.16683 11.4428 9.39069 11.6666 9.66683 11.6666C11.4157 11.6666 12.8335 10.2489 12.8335 8.49998C12.8335 6.75108 11.4157 5.33331 9.66683 5.33331C7.91793 5.33331 6.50016 6.75108 6.50016 8.49998C6.50016 8.77612 6.72402 8.99998 7.00016 8.99998C7.2763 8.99998 7.50016 8.77612 7.50016 8.49998C7.50016 7.30336 8.47021 6.33331 9.66683 6.33331C10.8634 6.33331 11.8335 7.30336 11.8335 8.49998Z"/>
	</symbol>

	<symbol viewBox="0 0 16 17" id="discord">
		<path d="M9.87994 3.34003C9.74754 3.57715 9.62955 3.82204 9.52661 4.07336C8.51512 3.91339 7.48477 3.91339 6.47328 4.07336C6.37034 3.82204 6.25235 3.57715 6.11995 3.34003C5.16714 3.50283 4.24088 3.79439 3.36661 4.20669C1.80324 6.46289 1.09424 9.202 1.36661 11.9334C2.38544 12.6993 3.52892 13.2834 4.74661 13.66C5.02389 13.2938 5.27135 12.9059 5.48661 12.5C5.08933 12.3535 4.70748 12.1682 4.34661 11.9467C4.44559 11.8808 4.53921 11.8073 4.62661 11.7267C5.67892 12.2336 6.83192 12.4968 7.99994 12.4968C9.16797 12.4968 10.321 12.2336 11.3733 11.7267C11.4666 11.8067 11.5599 11.88 11.6533 11.9467C11.2905 12.1665 10.909 12.3538 10.5133 12.5067C10.7196 12.9217 10.9605 13.3187 11.2333 13.6934C12.4495 13.318 13.591 12.7338 14.6066 11.9667C14.8855 9.23483 14.1759 6.49348 12.6066 4.24003C11.7422 3.81919 10.8251 3.51647 9.87994 3.34003ZM5.78661 10.3734C5.453 10.3494 5.14164 10.1972 4.91789 9.94854C4.69414 9.69993 4.57541 9.37431 4.58661 9.04003C4.57372 8.7053 4.69187 8.37875 4.91595 8.12977C5.14004 7.88079 5.45238 7.72901 5.78661 7.70669C6.12084 7.72901 6.43319 7.88079 6.65727 8.12977C6.88135 8.37875 6.9995 8.7053 6.98661 9.04003C6.9995 9.37475 6.88135 9.7013 6.65727 9.95029C6.43319 10.1993 6.12084 10.351 5.78661 10.3734ZM10.2133 10.3734C9.87967 10.3494 9.56831 10.1972 9.34456 9.94854C9.12081 9.69993 9.00208 9.37431 9.01328 9.04003C9.00039 8.7053 9.11854 8.37875 9.34262 8.12977C9.5667 7.88079 9.87905 7.72901 10.2133 7.70669C10.5481 7.72734 10.8615 7.87863 11.0859 8.12799C11.3103 8.37735 11.4279 8.70486 11.4133 9.04003C11.4279 9.37519 11.3103 9.7027 11.0859 9.95206C10.8615 10.2014 10.5481 10.3527 10.2133 10.3734Z"/>
	</symbol>

	<symbol viewBox="0 0 40 40" id="upload">
		<path fill-rule="evenodd" clip-rule="evenodd" d="M3.3335 20C3.3335 12.1433 3.3335 8.2149 5.77427 5.77412C8.21505 3.33334 12.1434 3.33334 20.0002 3.33334C27.8569 3.33334 31.7853 3.33334 34.2261 5.77412C36.6668 8.2149 36.6668 12.1433 36.6668 20C36.6668 27.8568 36.6668 31.7851 34.2261 34.2259C31.7853 36.6667 27.8569 36.6667 20.0002 36.6667C12.1434 36.6667 8.21505 36.6667 5.77427 34.2259C3.3335 31.7851 3.3335 27.8568 3.3335 20ZM20.0002 29.5833C20.6905 29.5833 21.2502 29.0237 21.2502 28.3333V19.6844L24.1163 22.5506C24.6044 23.0387 25.3959 23.0387 25.884 22.5506C26.3722 22.0624 26.3722 21.2709 25.884 20.7828L20.884 15.7828C20.6496 15.5484 20.3317 15.4167 20.0002 15.4167C19.6686 15.4167 19.3507 15.5484 19.1163 15.7828L14.1163 20.7828C13.6281 21.2709 13.6281 22.0624 14.1163 22.5506C14.6044 23.0387 15.3959 23.0387 15.884 22.5506L18.7502 19.6844V28.3333C18.7502 29.0237 19.3098 29.5833 20.0002 29.5833ZM13.3335 12.9167C12.6431 12.9167 12.0835 12.357 12.0835 11.6667C12.0835 10.9763 12.6431 10.4167 13.3335 10.4167H26.6668C27.3572 10.4167 27.9168 10.9763 27.9168 11.6667C27.9168 12.357 27.3572 12.9167 26.6668 12.9167H13.3335Z"/>
	</symbol>

	<symbol viewBox="0 0 16 16" id="arrow-grow">
		<path fill-rule="evenodd" clip-rule="evenodd" d="M5.66667 4C5.66667 3.44772 6.11438 3 6.66667 3H12C12.5523 3 13 3.44772 13 4V9.33333C13 9.88562 12.5523 10.3333 12 10.3333C11.4477 10.3333 11 9.88562 11 9.33333V6.41421L4.70711 12.7071C4.31658 13.0976 3.68342 13.0976 3.29289 12.7071C2.90237 12.3166 2.90237 11.6834 3.29289 11.2929L9.58579 5H6.66667C6.11438 5 5.66667 4.55228 5.66667 4Z"/>
	</symbol>

	<symbol viewBox="0 0 16 16" id="arrow-drop">
		<path fill-rule="evenodd" clip-rule="evenodd" d="M12.5 5.66667C13.0523 5.66667 13.5 6.11438 13.5 6.66667L13.5 12C13.5 12.5523 13.0523 13 12.5 13L7.16667 13C6.61438 13 6.16667 12.5523 6.16667 12C6.16667 11.4477 6.61438 11 7.16667 11L10.0858 11L3.79289 4.70711C3.40237 4.31658 3.40237 3.68342 3.79289 3.29289C4.18342 2.90237 4.81658 2.90237 5.20711 3.29289L11.5 9.58579L11.5 6.66667C11.5 6.11438 11.9477 5.66667 12.5 5.66667Z"/>
	</symbol>
		
</svg>