<svg width="20" height="20" viewBox="0 0 20 20" fill="none" xmlns="http://www.w3.org/2000/svg">
<path d="M14.1667 12.0833C14.1667 15.5351 11.3685 18.3333 7.91675 18.3333C4.46497 18.3333 1.66675 15.5351 1.66675 12.0833C1.66675 8.63154 4.46497 5.83332 7.91675 5.83332C11.3685 5.83332 14.1667 8.63154 14.1667 12.0833Z" fill="#96EA43"/>
<path d="M14.9843 1.96096C15.1391 1.56856 15.6944 1.56856 15.8492 1.96096L16.3945 3.34367C16.4418 3.46347 16.5366 3.5583 16.6564 3.60555L18.0391 4.15089C18.4315 4.30565 18.4315 4.861 18.0391 5.01576L16.6564 5.56109C16.5366 5.60834 16.4418 5.70317 16.3945 5.82298L15.8492 7.20569C15.6944 7.59809 15.1391 7.59809 14.9843 7.20569L14.439 5.82298C14.3917 5.70317 14.2969 5.60834 14.1771 5.56109L12.7944 5.01576C12.402 4.861 12.402 4.30565 12.7944 4.15089L14.1771 3.60555C14.2969 3.5583 14.3917 3.46347 14.439 3.34367L14.9843 1.96096Z" fill="#96EA43"/>
<path d="M13.348 7.53606L13.9725 6.91154L13.7225 6.27759L13.0887 6.02762L12.4641 6.65217C12.784 6.92029 13.0799 7.21616 13.348 7.53606Z" fill="#96EA43"/>
</svg>
