<svg width="20" height="20" viewBox="0 0 20 20" fill="none" xmlns="http://www.w3.org/2000/svg">
<path d="M13.7968 10.7552L13.4173 11.1325C13.4173 11.1325 12.5151 12.0296 10.0526 9.58105C7.59009 7.13253 8.49225 6.2355 8.49225 6.2355L8.73126 5.99784C9.32006 5.41239 9.37556 4.47245 8.86186 3.78626L7.81104 2.38259C7.17523 1.53328 5.94663 1.42109 5.21787 2.14571L3.90987 3.44629C3.54852 3.80558 3.30637 4.27135 3.33573 4.78803C3.41086 6.10987 4.00892 8.9539 7.34613 12.2722C10.8851 15.791 14.2057 15.9309 15.5636 15.8043C15.9931 15.7643 16.3666 15.5455 16.6676 15.2462L17.8514 14.0692C18.6505 13.2746 18.4252 11.9125 17.4028 11.3567L15.8107 10.4912C15.1394 10.1263 14.3215 10.2335 13.7968 10.7552Z" fill="#96EA43"/>
</svg>
