<svg width="370" height="540" viewBox="0 0 370 540" fill="none" xmlns="http://www.w3.org/2000/svg">
<path d="M117.982 367.734C78.0735 331.382 40.4816 382.881 26.6742 413.174L0 425.043V540L45.0128 446.068C61.5987 462.119 111.365 498.154 177.743 513.889C260.715 533.557 276.874 480.996 326.76 425.043C366.668 380.281 371.601 342.866 369.079 329.754V200.555C365.489 194.903 348.432 207.066 308.934 300.93C259.561 418.261 167.868 413.174 117.982 367.734Z" fill="#29FFFF"/>
<path d="M117.982 168.34C78.0735 131.988 40.4816 183.487 26.6742 213.78L0 225.649V340.606L45.0128 246.673C61.5987 262.724 111.365 298.76 177.743 314.495C260.715 334.163 276.874 281.601 326.76 225.649C366.668 180.887 371.601 143.472 369.079 130.36V1.16074C365.489 -4.49102 348.432 7.67158 308.934 101.536C259.561 218.867 167.868 213.78 117.982 168.34Z" fill="#200B50"/>
<path d="M117.982 255.347C78.0735 218.995 40.4816 270.494 26.6742 300.787L0 312.656V427.613L45.0128 333.68C61.5987 349.731 111.365 385.767 177.743 401.501C260.715 421.17 276.874 368.608 326.76 312.656C366.668 267.894 371.601 230.479 369.079 217.367V88.1676C365.489 82.5158 348.432 94.6784 308.934 188.543C259.561 305.874 167.868 300.787 117.982 255.347Z" fill="#5BFF21"/>
</svg>
