<svg width="40" height="40" viewBox="0 0 40 40" fill="none" xmlns="http://www.w3.org/2000/svg">
<path d="M28.6721 25.0063V21.1031L25.4971 22.9344V26.8407L28.6721 25.0063Z" fill="#FFCF26"/>
<path d="M28.6719 14.9938L25.3781 13.0906L20 16.1969L14.6219 13.0906L11.3281 14.9938V18.4531L16.7969 21.6125V28.1656L20 30.0156L23.2031 28.1656V21.6125L28.6719 18.4531V14.9938ZM34.1719 15.2781V11.8188L30.8781 9.91565L27.6719 11.7656L30.9656 13.6688V17.1281L34.1719 15.2781ZM9.03438 17.1281V13.6688L12.3281 11.7656L9.12188 9.91565L5.82812 11.8188V15.2781L9.03438 17.1281Z" fill="#FFCF26"/>
<path d="M11.3281 25.0062L14.5031 26.8406V22.9344L11.3281 21.1031V25.0062ZM23.2031 30.8156L20 32.6656L16.7969 30.8156V34.5156L20 36.3656L23.2031 34.5156V30.8156ZM23.0844 11.7656L20 9.98438L16.9156 11.7656L20 13.5469L23.0844 11.7656ZM30.9656 19.7781V26.3313L25.4969 29.4906V33.1906L34.1719 28.1812V17.9281L30.9656 19.7781Z" fill="#FFCF26"/>
<path d="M14.5031 29.4907L9.03437 26.3313V19.7781L5.82812 17.9281V28.1813L14.5031 33.1907V29.4907ZM14.6219 10.4406L20 7.33752L25.3781 10.4406L28.5844 8.59065L20 3.6344L11.4156 8.59065L14.6219 10.4406Z" fill="#FFCF26"/>
</svg>
