<svg width="18" height="18" viewBox="0 0 18 18" fill="none" xmlns="http://www.w3.org/2000/svg">
<path fill-rule="evenodd" clip-rule="evenodd" d="M3.54539 2.03433C3.77443 1.80993 4.09601 1.66362 4.70327 1.58363C5.32839 1.50129 6.1569 1.5 7.34483 1.5H10.6552C11.8431 1.5 12.6716 1.50129 13.2967 1.58363C13.904 1.66362 14.2256 1.80993 14.4546 2.03433C14.6837 2.25873 14.833 2.57379 14.9146 3.16875C14.9987 3.78119 15 4.59291 15 5.75676V11.6351L5.50922 11.6351C4.83229 11.6349 4.37037 11.6347 3.97424 11.7387C3.62005 11.8317 3.29151 11.9836 3 12.1832V5.75676C3 4.59291 3.00132 3.78119 3.08536 3.16875C3.16701 2.57379 3.31634 2.25873 3.54539 2.03433ZM5.68966 4.33784C5.34686 4.33784 5.06897 4.6101 5.06897 4.94595C5.06897 5.28179 5.34686 5.55405 5.68966 5.55405H12.3103C12.6531 5.55405 12.931 5.28179 12.931 4.94595C12.931 4.6101 12.6531 4.33784 12.3103 4.33784H5.68966ZM5.06897 7.78378C5.06897 7.44793 5.34686 7.17568 5.68966 7.17568H9.82759C10.1704 7.17568 10.4483 7.44793 10.4483 7.78378C10.4483 8.11963 10.1704 8.39189 9.82759 8.39189H5.68966C5.34686 8.39189 5.06897 8.11963 5.06897 7.78378Z" fill="#4E535C"/>
<path d="M5.60506 12.8514C4.79546 12.8514 4.51243 12.8566 4.29553 12.9135C3.70023 13.0698 3.22566 13.5033 3.02214 14.0668C3.03472 14.3537 3.05445 14.606 3.08536 14.8313C3.16701 15.4262 3.31634 15.7413 3.54539 15.9657C3.77443 16.1901 4.09601 16.3364 4.70327 16.4164C5.32839 16.4987 6.1569 16.5 7.34483 16.5H10.6552C11.8431 16.5 12.6716 16.4987 13.2967 16.4164C13.904 16.3364 14.2256 16.1901 14.4546 15.9657C14.6171 15.8065 14.7394 15.6017 14.826 15.2838H5.68966C5.34686 15.2838 5.06897 15.0115 5.06897 14.6757C5.06897 14.3398 5.34686 14.0676 5.68966 14.0676H14.9778C14.9932 13.7181 14.9979 13.3173 14.9994 12.8514H5.60506Z" fill="#4E535C"/>
</svg>
