<svg width="16" height="16" viewBox="0 0 16 16" fill="none" xmlns="http://www.w3.org/2000/svg">
<path d="M12.789 5.20336L10.8125 3.22495C9.4614 1.87252 8.78584 1.1963 8.06026 1.35637C7.33469 1.51645 7.00572 2.41429 6.34778 4.20996L5.90247 5.42532C5.72706 5.90403 5.63936 6.14339 5.48157 6.32853C5.41077 6.41161 5.33022 6.48583 5.24165 6.54959C5.04427 6.69169 4.79872 6.75938 4.30761 6.89478C3.20069 7.19994 2.64723 7.35252 2.43867 7.71464C2.34851 7.87119 2.30159 8.04893 2.30273 8.22962C2.30537 8.6476 2.7113 9.05393 3.52315 9.86657L4.46621 10.8108L1.48228 13.7975C1.28366 13.9963 1.28366 14.3187 1.48228 14.5175C1.6809 14.7163 2.00293 14.7163 2.20155 14.5175L5.18559 11.5306L6.16292 12.5089C6.97993 13.3267 7.38844 13.7356 7.80889 13.7363C7.98608 13.7365 8.16027 13.6905 8.3142 13.6026C8.67946 13.3942 8.83287 12.8367 9.13967 11.7216C9.27456 11.2314 9.34201 10.9862 9.48358 10.7889C9.54556 10.7026 9.61747 10.6238 9.69782 10.5542C9.88136 10.3953 10.1192 10.3059 10.5948 10.1272L11.8241 9.66535C13.6 8.99813 14.4879 8.66453 14.6444 7.94089C14.8009 7.21725 14.1303 6.54595 12.789 5.20336Z" fill="#96EA43"/>
</svg>
