<svg width="1442" height="797" viewBox="0 0 1442 797" fill="none" xmlns="http://www.w3.org/2000/svg">
<path d="M460 542.211C304.4 488.611 157.833 564.545 104 609.211L0 626.711V796.211L175.5 657.711C240.167 681.378 434.2 734.511 693 757.711C1016.5 786.711 1079.5 709.211 1274 626.711C1429.6 560.711 1448.83 505.545 1439 486.211V295.711C1425 287.378 1358.5 305.311 1204.5 443.711C1012 616.711 654.5 609.212 460 542.211Z" fill="#9077FF"/>
<path d="M460 248.211C304.4 194.611 157.833 270.545 104 315.211L0 332.711V502.211L175.5 363.711C240.167 387.378 434.2 440.511 693 463.711C1016.5 492.711 1079.5 415.211 1274 332.711C1429.6 266.711 1448.83 211.545 1439 192.211V1.71147C1425 -6.62186 1358.5 11.3115 1204.5 149.711C1012 322.711 654.5 315.211 460 248.211Z" fill="#200B50"/>
<path d="M460 376.5C304.4 322.9 157.833 398.833 104 443.5L0 461V630.5L175.5 492C240.167 515.667 434.2 568.8 693 592C1016.5 621 1079.5 543.5 1274 461C1429.6 395 1448.83 339.833 1439 320.5V130C1425 121.667 1358.5 139.6 1204.5 278C1012 451 654.5 443.5 460 376.5Z" fill="#1E73FE"/>
</svg>
