<svg width="25" height="24" viewBox="0 0 25 24" fill="none" xmlns="http://www.w3.org/2000/svg">
<path fill-rule="evenodd" clip-rule="evenodd" d="M8.04618 3.27793C8.21236 3.39789 8.48037 3.67345 8.48037 3.67345C9.52079 4.64858 11.0879 7.07394 11.5911 8.30444C11.6016 8.30444 11.9001 9.03608 11.9118 9.38409V9.43041C11.9118 9.96371 11.6133 10.4626 11.1335 10.7179C10.9357 10.8232 10.4546 10.9211 10.2224 10.9683C10.1456 10.984 10.096 10.9941 10.0931 10.997C9.40727 11.1016 8.35514 11.1704 7.20003 11.1704C5.98757 11.1704 4.88981 11.1016 4.21453 10.9733C4.20282 10.9733 3.58606 10.8462 3.38009 10.7642C3.08282 10.6372 2.8312 10.4044 2.67087 10.1145C2.55618 9.88294 2.5 9.63827 2.5 9.38409C2.51053 9.11685 2.68257 8.618 2.76215 8.42083C3.26539 7.12026 4.91204 4.6367 5.91852 3.68532C6.02307 3.57922 6.14206 3.46806 6.22485 3.39071C6.26902 3.34945 6.3029 3.3178 6.31877 3.30169C6.57039 3.10452 6.87936 3 7.21173 3C7.50783 3 7.80509 3.09264 8.04618 3.27793ZM18.7286 10.1618C18.7286 10.6856 18.3108 11.1096 17.7947 11.1096C17.2786 11.1096 16.8608 10.6856 16.8608 10.1618L16.6033 5.58295C16.6033 4.91543 17.137 4.375 17.7947 4.375C18.4524 4.375 18.9849 4.91543 18.9849 5.58295L18.7286 10.1618ZM21.6199 13.2356C21.9172 13.3639 22.1688 13.5955 22.3291 13.8853C22.4438 14.1169 22.5 14.3616 22.5 14.617C22.4895 14.883 22.3174 15.3831 22.2367 15.5802C21.7346 16.8797 20.0868 19.3633 19.0815 20.3158C18.9787 20.4194 18.8619 20.5284 18.7793 20.6055L18.7792 20.6055C18.7331 20.6486 18.6976 20.6817 18.6812 20.6983C18.4284 20.8955 18.1206 21 17.7894 21C17.491 21 17.1937 20.9074 16.9538 20.7209C16.7876 20.6021 16.5196 20.3265 16.5196 20.3265C15.478 19.3526 13.9121 16.926 13.4089 15.6954C13.3972 15.6954 13.0999 14.965 13.0882 14.617V14.5706C13.0882 14.0361 13.3855 13.5373 13.8665 13.2819C14.0639 13.1777 14.5435 13.0796 14.7762 13.0319L14.7762 13.0319C14.8539 13.016 14.904 13.0058 14.9069 13.0028C15.5927 12.8983 16.6449 12.8294 17.8 12.8294C19.0124 12.8294 20.1102 12.8983 20.7855 13.0265C20.796 13.0265 21.4139 13.1536 21.6199 13.2356ZM7.20553 12.8905C6.68942 12.8905 6.27161 13.3146 6.27161 13.8383L6.01414 18.4171C6.01414 19.0846 6.54781 19.625 7.20553 19.625C7.86325 19.625 8.39575 19.0846 8.39575 18.4171L8.13945 13.8383C8.13945 13.3146 7.72165 12.8905 7.20553 12.8905Z" fill="#D1FC26"/>
</svg>
